<?xml version="1.0" encoding="UTF-8" standalone="no"?>
<!-- Created with Inkscape (http://www.inkscape.org/) -->

<svg
   xmlns:dc="http://purl.org/dc/elements/1.1/"
   xmlns:cc="http://creativecommons.org/ns#"
   xmlns:rdf="http://www.w3.org/1999/02/22-rdf-syntax-ns#"
   xmlns:svg="http://www.w3.org/2000/svg"
   xmlns="http://www.w3.org/2000/svg"
   xmlns:sodipodi="http://sodipodi.sourceforge.net/DTD/sodipodi-0.dtd"
   xmlns:inkscape="http://www.inkscape.org/namespaces/inkscape"
   width="744.09448819"
   height="1052.3622047"
   id="svg2"
   version="1.1"
   inkscape:version="0.48.2 r9819"
   sodipodi:docname="health.svg">
  <defs
     id="defs4" />
  <sodipodi:namedview
     id="base"
     pagecolor="#ffffff"
     bordercolor="#666666"
     borderopacity="1.0"
     inkscape:pageopacity="0.0"
     inkscape:pageshadow="2"
     inkscape:zoom="3.959798"
     inkscape:cx="153.05788"
     inkscape:cy="120.73482"
     inkscape:document-units="px"
     inkscape:current-layer="layer1"
     showgrid="false"
     inkscape:window-width="1920"
     inkscape:window-height="1003"
     inkscape:window-x="-9"
     inkscape:window-y="-9"
     inkscape:window-maximized="1" />
  <metadata
     id="metadata7">
    <rdf:RDF>
      <cc:Work
         rdf:about="">
        <dc:format>image/svg+xml</dc:format>
        <dc:type
           rdf:resource="http://purl.org/dc/dcmitype/StillImage" />
        <dc:title></dc:title>
      </cc:Work>
    </rdf:RDF>
  </metadata>
  <g
     inkscape:label="Layer 1"
     inkscape:groupmode="layer"
     id="layer1">
    <g
       id="g5356"
       inkscape:export-filename="C:\Users\Immac\Documents\GitHub\Semana5\fullHealth.png"
       inkscape:export-xdpi="90.088364"
       inkscape:export-ydpi="90.088364"
       transform="matrix(2.0000158,0,0,1.9999611,-141.70113,-1012.7432)">
      <g
         id="g5318">
        <path
           inkscape:connector-curvature="0"
           id="path5334"
           d="m 182.08269,969.13591 c -0.63265,-0.3637 -1.87781,-1.04764 -2.76702,-1.51986 -3.19841,-1.69857 -4.75759,-2.64406 -8.00067,-4.85162 -1.20313,-0.81896 -2.44055,-1.62578 -2.74983,-1.79293 -0.52298,-0.28264 -0.55892,-0.32176 -0.51367,-0.55921 0.1743,-0.91462 3.98857,-8.66356 5.2919,-10.75085 0.4682,-0.74981 0.88384,-1.38343 0.92365,-1.40803 0.0398,-0.0246 0.2055,0.12137 0.3682,0.3244 0.1627,0.20302 0.88078,0.86254 1.59573,1.4656 1.22394,1.0324 2.49473,2.28908 2.49473,2.46704 0,0.0977 -0.75069,1.57925 -1.24906,2.46518 -0.20028,0.35603 -0.32396,0.64733 -0.27485,0.64733 0.0491,0 0.22654,-0.0655 0.3943,-0.14546 0.25595,-0.12205 0.40277,-0.33355 0.91258,-1.31459 l 0.60755,-1.16913 0.11321,0.26548 c 0.0623,0.14602 0.11503,0.3291 0.11725,0.40685 0.002,0.0778 0.03,0.16739 0.0618,0.1992 0.0978,0.0978 0.74574,-0.31934 0.74574,-0.48019 0,-0.0833 -0.13763,-0.42484 -0.30585,-0.75908 l -0.30585,-0.60769 0.17281,-0.33874 c 0.43469,-0.85206 1.50083,-4.01633 1.64207,-4.87362 0.0344,-0.2087 0.0834,-0.37946 0.10895,-0.37946 0.0255,0 0.5539,0.2712 1.17416,0.60268 2.1031,1.12392 5.87793,3.76578 7.11237,4.97767 0.8562,0.84057 1.52582,1.76959 1.61391,2.23915 0.0744,0.39653 -0.15528,0.69205 -1.8111,2.33046 -1.54113,1.52492 -1.91002,2.01793 -2.66032,3.55539 -0.72205,1.47961 -1.07655,2.41903 -1.61726,4.28572 -0.81856,2.82594 -1.23877,3.97425 -1.83383,5.01122 l -0.21138,0.36837 -1.15027,-0.66128 0,0 z"
           style="fill:#ff0000;fill-opacity:1;fill-rule:nonzero;stroke:none" />
        <path
           inkscape:connector-curvature="0"
           d="m 179.48165,953.85112 c -0.0116,-0.13662 -0.0602,-0.26206 -0.10058,-0.38921 -0.0608,-0.19156 -0.0118,-0.0598 -0.0973,-0.26665 -0.14488,-0.3219 -0.35134,-0.59413 -0.55717,-0.86338 -0.23674,-0.31033 -0.50661,-0.58167 -0.76627,-0.86457 -0.34881,-0.3565 -0.72072,-0.68159 -1.09806,-0.99531 -0.32575,-0.25848 -0.64155,-0.5332 -0.96252,-0.79956 -0.22731,-0.18109 -0.44596,-0.37654 -0.66045,-0.57778 -0.11903,-0.12714 -0.25447,-0.23294 -0.37226,-0.36168 -0.0491,-0.0539 -0.0946,-0.11189 -0.1429,-0.16663 -0.13933,-0.14889 -0.27735,-0.30016 -0.42114,-0.44336 -0.0624,-0.0897 -0.15113,-0.1433 -0.22514,-0.21629 -0.0167,-0.014 -0.041,-0.0439 -0.0651,-0.0399 -0.0123,0 -0.0328,0.0419 -0.0219,0.0349 0.19631,-0.12395 0.38768,-0.25838 0.58152,-0.38761 -0.10972,0.16025 -0.20327,0.33585 -0.29711,0.50927 -0.23024,0.40845 -0.47753,0.80205 -0.7374,1.18517 -0.38124,0.55924 -0.73759,1.141 -1.08017,1.73324 -0.35442,0.66095 -0.67387,1.34633 -1.01619,2.01575 -0.42284,0.80813 -0.83588,1.62314 -1.23717,2.44624 -0.27704,0.58067 -0.55799,1.15855 -0.8423,1.73443 -0.2566,0.50309 -0.50289,1.01236 -0.72109,1.53988 -0.16912,0.40108 -0.34176,0.80006 -0.5014,1.20652 -0.0566,0.1425 -0.10263,0.29028 -0.15535,0.43468 -0.0384,0.1053 -0.0685,0.16902 -0.0878,0.28121 0.001,0.0169 -8.5e-4,0.0349 0.004,0.0518 0.0134,0.0409 0.0765,0.0708 0.1052,0.0888 0.0214,0.013 0.0421,0.0279 0.0632,0.0429 0.0221,0.013 0.0441,0.0269 0.0662,0.0399 0.19624,0.13163 0.41192,0.2156 0.61679,0.32529 0.0894,0.0479 0.28771,0.17351 0.36662,0.22257 0.30077,0.16394 0.58349,0.36757 0.87009,0.56203 0.0722,0.0489 0.14641,0.0937 0.21713,0.14539 0.0856,0.0628 0.1677,0.13153 0.25155,0.19725 0.57008,0.41104 1.15157,0.80025 1.73681,1.18088 0.11369,0.0798 0.22655,0.16205 0.34106,0.24063 0.21358,0.14659 0.5497,0.36557 0.76465,0.50588 0.39091,0.25518 0.78193,0.50827 1.17817,0.75189 0.42924,0.26336 0.85664,0.53191 1.28979,0.7865 0.19669,0.11557 0.396,0.22486 0.59341,0.33884 0.97739,0.56392 0.21803,0.13832 1.1583,0.65846 0.17176,0.0897 0.34351,0.18019 0.51526,0.27034 0.19863,0.10999 0.39584,0.22357 0.59588,0.32997 0.1992,0.10601 0.40156,0.20353 0.60171,0.30704 0.52814,0.27304 1.05121,0.55804 1.5736,0.84573 0.6404,0.35062 1.27826,0.70762 1.90689,1.08635 0.24055,0.16434 0.49353,0.30096 0.73701,0.45862 0.0369,0.0189 0.0734,0.0558 0.11145,0.0219 0.008,-0.01 0.031,-0.0319 0.0219,-0.0259 -0.57541,0.37225 -0.73548,0.58187 -0.55007,0.34842 0.0997,-0.17152 0.18673,-0.35281 0.27854,-0.53021 0.16428,-0.28839 0.31501,-0.58696 0.46383,-0.88652 0.21332,-0.42251 0.40311,-0.85978 0.58685,-1.30065 0.22563,-0.59363 0.40861,-1.20701 0.57897,-1.82488 0.1909,-0.65057 0.36375,-1.30803 0.55113,-1.9599 0.17257,-0.61687 0.38405,-1.21858 0.61075,-1.81062 0.0591,-0.1431 0.11668,-0.287 0.17723,-0.4292 0.0619,-0.14539 0.30571,-0.69475 0.37324,-0.84662 0.0564,-0.12695 0.26262,-0.59095 0.32674,-0.72666 0.0489,-0.10331 0.10102,-0.20453 0.15153,-0.30684 0.19218,-0.36299 0.39665,-0.72008 0.62142,-1.05684 0.0704,-0.1054 0.21367,-0.30086 0.29056,-0.40676 0.26744,-0.36846 0.57184,-0.69704 0.87629,-1.02263 0.0472,-0.0499 0.0934,-0.10082 0.14169,-0.14918 0.12411,-0.12435 0.20479,-0.19326 0.33128,-0.31272 0.13334,-0.12595 0.26422,-0.25489 0.39918,-0.37854 0.21462,-0.19156 0.41889,-0.39799 0.62543,-0.60112 0.14091,-0.13382 0.27711,-0.27403 0.4205,-0.40436 0.0708,-0.0738 0.14232,-0.14689 0.21023,-0.22397 0.0491,-0.0818 0.0947,-0.16723 0.14529,-0.24841 0.0412,-0.0698 0.10326,-0.11637 0.15394,-0.1758 0.007,-0.01 0.0587,-0.0748 0.0656,-0.0848 0.063,-0.0718 0.0962,-0.11707 0.0921,-0.22297 -0.005,-0.0249 -0.0101,-0.0499 -0.0162,-0.0748 -0.0166,-0.0678 -0.0359,-0.13373 -0.0531,-0.20094 -0.0204,-0.0798 -0.0293,-0.12834 -0.0601,-0.20442 -0.0221,-0.0548 -0.048,-0.1068 -0.072,-0.16015 -0.24704,-0.47647 -0.56221,-0.90148 -0.9013,-1.29108 -0.0854,-0.0977 -0.17543,-0.19087 -0.26314,-0.2863 -0.41102,-0.43807 -0.85075,-0.83645 -1.31324,-1.19714 -0.23425,-0.18259 -0.4746,-0.35421 -0.71152,-0.53211 -0.55299,-0.42351 -1.12668,-0.80703 -1.69619,-1.19854 -0.40263,-0.27682 -0.44397,-0.30913 -0.83758,-0.59074 -0.70707,-0.50468 -1.43671,-0.96689 -2.18211,-1.389 -0.50805,-0.28092 -1.02331,-0.54338 -1.53637,-0.81133 -0.17803,-0.0828 -0.34902,-0.18458 -0.52518,-0.27253 -0.0689,-0.0339 -0.18323,-0.0907 -0.26099,-0.1093 -0.0282,-0.01 -0.0574,0 -0.0861,-0.01 -0.0199,0 -0.0413,0 -0.0598,0.014 -0.0144,0.01 -0.0501,0.0449 -0.0362,0.0359 0.19219,-0.12196 0.37509,-0.26446 0.57189,-0.37594 0.0185,-0.01 -0.0188,0.0429 -0.0246,0.0658 -0.0133,0.0519 -0.0207,0.14071 -0.0264,0.19326 -0.0369,0.38293 -0.12218,0.75558 -0.21327,1.12484 -0.0206,0.0818 -0.0399,0.16484 -0.0619,0.24651 -0.0495,0.18339 -0.14066,0.48285 -0.19231,0.65407 -0.12073,0.40018 -0.24617,0.79786 -0.37508,1.19455 -0.20329,0.59662 -0.4118,1.19205 -0.65713,1.76704 -0.0126,0.0299 -0.44258,0.98254 -0.45911,1.01914 -0.074,0.15816 -0.1485,0.31602 -0.22194,0.47457 -0.0669,0.1443 -0.13046,0.29069 -0.19894,0.43388 -0.23478,0.49123 -0.48773,0.97118 -0.74468,1.44665 -0.14147,0.2845 -0.32118,0.54048 -0.46081,0.82598 0,0 -0.6379,0.33316 -0.6379,0.33316 l 0,0 c 0.14505,-0.30015 0.34555,-0.55813 0.50004,-0.85151 0.19255,-0.33466 0.38114,-0.67072 0.5579,-1.01724 0.21437,-0.42032 0.22304,-0.45194 0.42512,-0.87784 0.0754,-0.15886 0.15134,-0.31721 0.22701,-0.47577 0.1165,-0.25678 0.34254,-0.74989 0.45157,-1.01116 0.0644,-0.15437 0.12342,-0.31173 0.18405,-0.46819 0.16396,-0.42301 0.31834,-0.85071 0.4587,-1.28549 0.22416,-0.68059 0.43397,-1.36816 0.59984,-2.07169 0.0887,-0.35959 0.1687,-0.72517 0.19538,-1.09922 0.0117,-0.15456 0.003,-0.0529 0.0183,-0.20133 0.003,-0.0309 -0.0119,-0.0738 0.009,-0.0917 0.19823,-0.17382 0.41501,-0.31672 0.62725,-0.4661 0.0142,-0.01 0.0324,-0.01 0.0489,-0.01 0.0215,-10e-4 0.043,0 0.0644,0 0.0289,0.01 0.0585,0.014 0.0868,0.0239 0.0757,0.0289 0.1842,0.0878 0.25337,0.12435 0.17265,0.0917 0.34382,0.18668 0.51588,0.27962 0.50717,0.27184 1.01295,0.54746 1.51573,0.83017 0.1044,0.0608 0.21003,0.11867 0.31319,0.18229 0.10621,0.0658 0.20955,0.13712 0.31476,0.20473 0.12021,0.0768 0.24137,0.15257 0.36149,0.23005 0.12731,0.0818 0.66773,0.43608 0.7865,0.51825 0.12996,0.0897 0.25712,0.18518 0.38568,0.27782 0.4099,0.29846 0.40935,0.30265 0.83258,0.59204 0.14395,0.0987 0.28983,0.19296 0.43362,0.29168 0.38424,0.26386 0.46041,0.32628 0.84412,0.59932 0.1427,0.10161 0.28613,0.20173 0.4292,0.30255 0.28411,0.20353 0.44818,0.31541 0.71944,0.53061 0.15596,0.12375 0.53481,0.44156 0.68173,0.57539 0.11062,0.10071 0.21689,0.20781 0.32509,0.31212 0.10726,0.10331 0.21419,0.20722 0.32128,0.31083 0.43958,0.48255 0.87822,0.97865 1.21265,1.5699 0.0295,0.0538 0.0619,0.1059 0.0884,0.16204 0.0393,0.0838 0.0414,0.12236 0.0639,0.20991 0.0262,0.10212 0.0278,0.10022 0.0579,0.19845 0.008,0.0269 0.0164,0.0548 0.0246,0.0818 0.005,0.0229 0.012,0.0449 0.0142,0.0678 0.002,0.0149 -0.002,0.0309 -0.003,0.0469 -0.007,0.0718 -0.0306,0.12805 -0.074,0.1798 -0.0423,0.0439 -0.0644,0.0868 -0.10269,0.13113 -0.031,0.0359 -0.0517,0.0479 -0.0854,0.0808 -0.0125,0.012 -0.0241,0.0249 -0.0361,0.0379 -0.0274,0.0419 -0.0568,0.0838 -0.0813,0.12844 -0.008,0.014 -0.0134,0.0299 -0.0215,0.0439 -0.007,0.012 -0.0173,0.0219 -0.0235,0.0339 -0.007,0.014 -0.01,0.0289 -0.0145,0.0439 -0.0176,0.0299 -0.0261,0.0479 -0.0503,0.0728 -0.0719,0.0718 4e-5,-0.018 -0.0739,0.0678 -0.0138,0.016 -0.0252,0.0349 -0.0389,0.0509 -0.0155,0.018 -0.0323,0.0349 -0.0485,0.0519 -0.04,0.0369 -0.0817,0.0708 -0.12163,0.107 -0.10472,0.0957 -0.20177,0.20283 -0.30668,0.29846 -0.2124,0.20173 -0.41841,0.41254 -0.63475,0.60859 -0.14024,0.12345 -0.27394,0.25439 -0.41072,0.38283 -0.15954,0.14988 -0.32581,0.29058 -0.47385,0.45662 -0.30745,0.3212 -0.60813,0.65296 -0.88133,1.01455 -0.0636,0.0848 -0.24529,0.32539 -0.30171,0.40686 -0.23109,0.33356 -0.43202,0.69525 -0.63339,1.05354 -0.053,0.10252 -0.10787,0.20373 -0.15897,0.30754 -0.0811,0.16484 -0.26627,0.5717 -0.33921,0.73215 -0.0942,0.20712 -0.28905,0.63591 -0.37513,0.84413 -0.0572,0.13831 -0.10879,0.27961 -0.16319,0.41942 -0.21479,0.59274 -0.42646,1.18817 -0.60174,1.79886 -0.19201,0.64938 -0.3722,1.30314 -0.54979,1.9581 -0.1762,0.61767 -0.35548,1.23444 -0.57495,1.83346 -0.17402,0.44146 -0.35686,0.87734 -0.56688,1.29716 -0.14656,0.29667 -0.28689,0.59842 -0.45198,0.88173 -0.0895,0.17501 -0.17436,0.35291 -0.26257,0.52872 -0.13902,0.30185 -0.0244,0.0738 -0.65271,0.49461 -0.0176,0.012 -0.0641,0 -0.0785,-0.01 -0.0206,-0.01 -0.0696,-0.0449 -0.0845,-0.0548 -0.23216,-0.16823 -0.47565,-0.31382 -0.71118,-0.47537 -0.60193,-0.40406 -1.21858,-0.77662 -1.84305,-1.13052 -0.51665,-0.2886 -1.02977,-0.58536 -1.55194,-0.86019 -0.40359,-0.21241 -0.81253,-0.41075 -1.21561,-0.62455 -0.16981,-0.0897 -0.33725,-0.18608 -0.50588,-0.27912 -0.38321,-0.22128 -0.764,-0.44854 -1.1492,-0.66513 -0.64338,-0.36179 -1.30729,-0.67521 -1.92553,-1.09613 -0.77409,-0.48194 -1.5371,-0.98773 -2.30417,-1.48473 -0.58705,-0.38253 -1.1691,-0.77563 -1.7454,-1.17999 -0.41471,-0.29797 -0.10231,-0.0778 -0.47781,-0.33217 -0.28625,-0.19376 -0.56816,-0.39808 -0.87102,-0.55544 -0.0698,-0.0389 -0.13984,-0.0778 -0.20943,-0.11807 -0.054,-0.0309 -0.10652,-0.0648 -0.16124,-0.0947 -0.21114,-0.11188 -0.43122,-0.20063 -0.64182,-0.31421 -0.0922,-0.0568 -0.22933,-0.11129 -0.2724,-0.23524 -0.008,-0.0239 -0.007,-0.0499 -0.0108,-0.0748 0.003,-0.0299 0.003,-0.0608 0.01,-0.0897 0.0179,-0.0788 0.0529,-0.1417 0.0822,-0.2153 0.0577,-0.14489 0.0994,-0.29716 0.1601,-0.44036 0.16543,-0.40906 0.34267,-0.81113 0.51556,-1.21589 0.11308,-0.26546 0.22762,-0.53121 0.35047,-0.79078 0.0427,-0.0908 0.0895,-0.17791 0.13289,-0.26775 0.26683,-0.55255 -0.0139,0.01 0.23619,-0.48654 0.12719,-0.25409 0.25888,-0.50508 0.38554,-0.75957 0.164,-0.32957 0.31989,-0.66463 0.48861,-0.99092 0.40225,-0.81731 0.8199,-1.62414 1.2233,-2.44065 0.34602,-0.66912 0.6677,-1.3549 1.01843,-2.02073 0.0614,-0.1097 0.12124,-0.22068 0.1842,-0.32918 0.27783,-0.47886 0.57759,-0.94016 0.87643,-1.40107 0.25342,-0.37425 0.49453,-0.75937 0.71336,-1.16274 0.089,-0.17311 0.18456,-0.34144 0.27545,-0.51316 0.38807,-0.27812 0.48926,-0.62814 0.7568,-0.36996 0.0774,0.0688 0.15451,0.13881 0.21912,0.22507 0.1397,0.15018 0.27901,0.30065 0.41958,0.44974 0.0132,0.0159 0.12728,0.14988 0.13939,0.16314 0.11624,0.12814 0.24343,0.24242 0.36549,0.36258 0.21432,0.19825 0.42934,0.39539 0.65289,0.57938 0.31282,0.27652 0.62888,0.54746 0.95257,0.80633 0.37621,0.3211 0.74423,0.65507 1.10426,1.0006 0.27085,0.27343 0.53318,0.55913 0.77581,0.86717 0.21424,0.27064 0.41894,0.55245 0.57162,0.87763 0.0234,0.0499 0.0499,0.0977 0.0703,0.14978 0.0153,0.0389 0.0236,0.0808 0.0363,0.12037 0.0416,0.13003 0.098,0.25528 0.1213,0.39229 0,0 -0.62424,0.39091 -0.62424,0.39091 z"
           id="path5336"
           style="fill:#000000;fill-opacity:1;fill-rule:nonzero;stroke:#000000;stroke-width:0.04336974;stroke-linejoin:round;stroke-miterlimit:4;stroke-opacity:1;stroke-dasharray:none" />
      </g>
    </g>
    <g
       id="g5349"
       inkscape:export-filename="C:\Users\Immac\Documents\GitHub\Semana5\halfHeatlh.png"
       inkscape:export-xdpi="90.110001"
       inkscape:export-ydpi="90.110001"
       transform="matrix(2.0000158,0,0,1.9999611,-153.0998,-1005.1229)">
      <g
         transform="translate(-29.375,-0.98214286)"
         id="g5312">
        <path
           inkscape:connector-curvature="0"
           d="m 174.30308,953.04755 c -0.0116,-0.13662 -0.0602,-0.26206 -0.10058,-0.38921 -0.0608,-0.19156 -0.0118,-0.0598 -0.0973,-0.26665 -0.14488,-0.3219 -0.35134,-0.59413 -0.55717,-0.86338 -0.23674,-0.31033 -0.50661,-0.58167 -0.76627,-0.86457 -0.34881,-0.3565 -0.72072,-0.68159 -1.09806,-0.99531 -0.32575,-0.25848 -0.64155,-0.5332 -0.96252,-0.79956 -0.22731,-0.18109 -0.44596,-0.37654 -0.66045,-0.57778 -0.11903,-0.12714 -0.25447,-0.23294 -0.37226,-0.36168 -0.0491,-0.0539 -0.0946,-0.11189 -0.1429,-0.16663 -0.13933,-0.14889 -0.27735,-0.30016 -0.42114,-0.44336 -0.0624,-0.0897 -0.15113,-0.1433 -0.22514,-0.21629 -0.0167,-0.014 -0.041,-0.0439 -0.0651,-0.0399 -0.0123,0 -0.0328,0.0419 -0.0219,0.0349 0.19631,-0.12395 0.38768,-0.25838 0.58152,-0.38761 -0.10972,0.16025 -0.20327,0.33585 -0.29711,0.50927 -0.23024,0.40845 -0.47753,0.80205 -0.7374,1.18517 -0.38124,0.55924 -0.73759,1.141 -1.08017,1.73324 -0.35442,0.66095 -0.67387,1.34633 -1.01619,2.01575 -0.42284,0.80813 -0.83588,1.62314 -1.23717,2.44624 -0.27704,0.58067 -0.55799,1.15855 -0.8423,1.73443 -0.2566,0.50309 -0.50289,1.01236 -0.72109,1.53988 -0.16912,0.40108 -0.34176,0.80006 -0.5014,1.20652 -0.0566,0.1425 -0.10263,0.29028 -0.15535,0.43468 -0.0384,0.1053 -0.0685,0.16902 -0.0878,0.28121 0.001,0.0169 -8.5e-4,0.0349 0.004,0.0518 0.0134,0.0409 0.0765,0.0708 0.1052,0.0888 0.0214,0.013 0.0421,0.0279 0.0632,0.0429 0.0221,0.013 0.0441,0.0269 0.0662,0.0399 0.19624,0.13163 0.41192,0.2156 0.61679,0.32529 0.0894,0.0479 0.28771,0.17351 0.36662,0.22257 0.30077,0.16394 0.58349,0.36757 0.87009,0.56203 0.0722,0.0489 0.14641,0.0937 0.21713,0.14539 0.0856,0.0628 0.1677,0.13153 0.25155,0.19725 0.57008,0.41104 1.15157,0.80025 1.73681,1.18088 0.11369,0.0798 0.22655,0.16205 0.34106,0.24063 0.21358,0.14659 0.5497,0.36557 0.76465,0.50588 0.39091,0.25518 0.78193,0.50827 1.17817,0.75189 0.42924,0.26336 0.85664,0.53191 1.28979,0.7865 0.19669,0.11557 0.396,0.22486 0.59341,0.33884 0.97739,0.56392 0.21803,0.13832 1.1583,0.65846 0.17176,0.0897 0.34351,0.18019 0.51526,0.27034 0.19863,0.10999 0.39584,0.22357 0.59588,0.32997 0.1992,0.10601 0.40156,0.20353 0.60171,0.30704 0.52814,0.27304 1.05121,0.55804 1.5736,0.84573 0.6404,0.35062 1.27826,0.70762 1.90689,1.08635 0.24055,0.16434 0.49353,0.30096 0.73701,0.45862 0.0369,0.0189 0.0734,0.0558 0.11145,0.0219 0.008,-0.01 0.031,-0.0319 0.0219,-0.0259 -0.57541,0.37225 -0.73548,0.58187 -0.55007,0.34842 0.0997,-0.17152 0.18673,-0.35281 0.27854,-0.53021 0.16428,-0.28839 0.31501,-0.58696 0.46383,-0.88652 0.21332,-0.42251 0.40311,-0.85978 0.58685,-1.30065 0.22563,-0.59363 0.40861,-1.20701 0.57897,-1.82488 0.1909,-0.65057 0.36375,-1.30803 0.55113,-1.9599 0.17257,-0.61687 0.38405,-1.21858 0.61075,-1.81062 0.0591,-0.1431 0.11668,-0.287 0.17723,-0.4292 0.0619,-0.14539 0.30571,-0.69475 0.37324,-0.84662 0.0564,-0.12695 0.26262,-0.59095 0.32674,-0.72666 0.0489,-0.10331 0.10102,-0.20453 0.15153,-0.30684 0.19218,-0.36299 0.39665,-0.72008 0.62142,-1.05684 0.0704,-0.1054 0.21367,-0.30086 0.29056,-0.40676 0.26744,-0.36846 0.57184,-0.69704 0.87629,-1.02263 0.0472,-0.0499 0.0934,-0.10082 0.14169,-0.14918 0.12411,-0.12435 0.20479,-0.19326 0.33128,-0.31272 0.13334,-0.12595 0.26422,-0.25489 0.39918,-0.37854 0.21462,-0.19156 0.41889,-0.39799 0.62543,-0.60112 0.14091,-0.13382 0.27711,-0.27403 0.4205,-0.40436 0.0708,-0.0738 0.14232,-0.14689 0.21023,-0.22397 0.0491,-0.0818 0.0947,-0.16723 0.14529,-0.24841 0.0412,-0.0698 0.10326,-0.11637 0.15394,-0.1758 0.007,-0.01 0.0587,-0.0748 0.0656,-0.0848 0.063,-0.0718 0.0962,-0.11707 0.0921,-0.22297 -0.005,-0.0249 -0.0101,-0.0499 -0.0162,-0.0748 -0.0166,-0.0678 -0.0359,-0.13373 -0.0531,-0.20094 -0.0204,-0.0798 -0.0293,-0.12834 -0.0601,-0.20442 -0.0221,-0.0548 -0.048,-0.1068 -0.072,-0.16015 -0.24704,-0.47647 -0.56221,-0.90148 -0.9013,-1.29108 -0.0854,-0.0977 -0.17543,-0.19087 -0.26314,-0.2863 -0.41102,-0.43807 -0.85075,-0.83645 -1.31324,-1.19714 -0.23425,-0.18259 -0.4746,-0.35421 -0.71152,-0.53211 -0.55299,-0.42351 -1.12668,-0.80703 -1.69619,-1.19854 -0.40263,-0.27682 -0.44397,-0.30913 -0.83758,-0.59074 -0.70707,-0.50468 -1.43671,-0.96689 -2.18211,-1.389 -0.50805,-0.28092 -1.02331,-0.54338 -1.53637,-0.81133 -0.17803,-0.0828 -0.34902,-0.18458 -0.52518,-0.27253 -0.0689,-0.0339 -0.18323,-0.0907 -0.26099,-0.1093 -0.0282,-0.01 -0.0574,0 -0.0861,-0.01 -0.0199,0 -0.0413,0 -0.0598,0.014 -0.0144,0.01 -0.0501,0.0449 -0.0362,0.0359 0.19219,-0.12196 0.37509,-0.26446 0.57189,-0.37594 0.0185,-0.01 -0.0188,0.0429 -0.0246,0.0658 -0.0133,0.0519 -0.0207,0.14071 -0.0264,0.19326 -0.0369,0.38293 -0.12218,0.75558 -0.21327,1.12484 -0.0206,0.0818 -0.0399,0.16484 -0.0619,0.24651 -0.0495,0.18339 -0.14066,0.48285 -0.19231,0.65407 -0.12073,0.40018 -0.24617,0.79786 -0.37508,1.19455 -0.20329,0.59662 -0.4118,1.19205 -0.65713,1.76704 -0.0126,0.0299 -0.44258,0.98254 -0.45911,1.01914 -0.074,0.15816 -0.1485,0.31602 -0.22194,0.47457 -0.0669,0.1443 -0.13046,0.29069 -0.19894,0.43388 -0.23478,0.49123 -0.48773,0.97118 -0.74468,1.44665 -0.14147,0.2845 -0.32118,0.54048 -0.46081,0.82598 0,0 -0.6379,0.33316 -0.6379,0.33316 l 0,0 c 0.14505,-0.30015 0.34555,-0.55813 0.50004,-0.85151 0.19255,-0.33466 0.38114,-0.67072 0.5579,-1.01724 0.21437,-0.42032 0.22304,-0.45194 0.42512,-0.87784 0.0754,-0.15886 0.15134,-0.31721 0.22701,-0.47577 0.1165,-0.25678 0.34254,-0.74989 0.45157,-1.01116 0.0644,-0.15437 0.12342,-0.31173 0.18405,-0.46819 0.16396,-0.42301 0.31834,-0.85071 0.4587,-1.28549 0.22416,-0.68059 0.43397,-1.36816 0.59984,-2.07169 0.0887,-0.35959 0.1687,-0.72517 0.19538,-1.09922 0.0117,-0.15456 0.003,-0.0529 0.0183,-0.20133 0.003,-0.0309 -0.0119,-0.0738 0.009,-0.0917 0.19823,-0.17382 0.41501,-0.31672 0.62725,-0.4661 0.0142,-0.01 0.0324,-0.01 0.0489,-0.01 0.0215,-0.001 0.043,0 0.0644,0 0.0289,0.01 0.0585,0.014 0.0868,0.0239 0.0757,0.0289 0.1842,0.0878 0.25337,0.12435 0.17265,0.0917 0.34382,0.18668 0.51588,0.27962 0.50717,0.27184 1.01295,0.54746 1.51573,0.83017 0.1044,0.0608 0.21003,0.11867 0.31319,0.18229 0.10621,0.0658 0.20955,0.13712 0.31476,0.20473 0.12021,0.0768 0.24137,0.15257 0.36149,0.23005 0.12731,0.0818 0.66773,0.43608 0.7865,0.51825 0.12996,0.0897 0.25712,0.18518 0.38568,0.27782 0.4099,0.29846 0.40935,0.30265 0.83258,0.59204 0.14395,0.0987 0.28983,0.19296 0.43362,0.29168 0.38424,0.26386 0.46041,0.32628 0.84412,0.59932 0.1427,0.10161 0.28613,0.20173 0.4292,0.30255 0.28411,0.20353 0.44818,0.31541 0.71944,0.53061 0.15596,0.12375 0.53481,0.44156 0.68173,0.57539 0.11062,0.10071 0.21689,0.20781 0.32509,0.31212 0.10726,0.10331 0.21419,0.20722 0.32128,0.31083 0.43958,0.48255 0.87822,0.97865 1.21265,1.5699 0.0295,0.0538 0.0619,0.1059 0.0884,0.16204 0.0393,0.0838 0.0414,0.12236 0.0639,0.20991 0.0262,0.10212 0.0278,0.10022 0.0579,0.19845 0.008,0.0269 0.0164,0.0548 0.0246,0.0818 0.005,0.0229 0.012,0.0449 0.0142,0.0678 0.002,0.0149 -0.002,0.0309 -0.003,0.0469 -0.007,0.0718 -0.0306,0.12805 -0.074,0.1798 -0.0423,0.0439 -0.0644,0.0868 -0.10269,0.13113 -0.031,0.0359 -0.0517,0.0479 -0.0854,0.0808 -0.0125,0.012 -0.0241,0.0249 -0.0361,0.0379 -0.0274,0.0419 -0.0568,0.0838 -0.0813,0.12844 -0.008,0.014 -0.0134,0.0299 -0.0215,0.0439 -0.007,0.012 -0.0173,0.0219 -0.0235,0.0339 -0.007,0.014 -0.01,0.0289 -0.0145,0.0439 -0.0176,0.0299 -0.0261,0.0479 -0.0503,0.0728 -0.0719,0.0718 4e-5,-0.018 -0.0739,0.0678 -0.0138,0.016 -0.0252,0.0349 -0.0389,0.0509 -0.0155,0.018 -0.0323,0.0349 -0.0485,0.0519 -0.04,0.0369 -0.0817,0.0708 -0.12163,0.107 -0.10472,0.0957 -0.20177,0.20283 -0.30668,0.29846 -0.2124,0.20173 -0.41841,0.41254 -0.63475,0.60859 -0.14024,0.12345 -0.27394,0.25439 -0.41072,0.38283 -0.15954,0.14988 -0.32581,0.29058 -0.47385,0.45662 -0.30745,0.3212 -0.60813,0.65296 -0.88133,1.01455 -0.0636,0.0848 -0.24529,0.32539 -0.30171,0.40686 -0.23109,0.33356 -0.43202,0.69525 -0.63339,1.05354 -0.053,0.10252 -0.10787,0.20373 -0.15897,0.30754 -0.0811,0.16484 -0.26627,0.5717 -0.33921,0.73215 -0.0942,0.20712 -0.28905,0.63591 -0.37513,0.84413 -0.0572,0.13831 -0.10879,0.27961 -0.16319,0.41942 -0.21479,0.59274 -0.42646,1.18817 -0.60174,1.79886 -0.19201,0.64938 -0.3722,1.30314 -0.54979,1.9581 -0.1762,0.61767 -0.35548,1.23444 -0.57495,1.83346 -0.17402,0.44146 -0.35686,0.87734 -0.56688,1.29716 -0.14656,0.29667 -0.28689,0.59842 -0.45198,0.88173 -0.0895,0.17501 -0.17436,0.35291 -0.26257,0.52872 -0.13902,0.30185 -0.0244,0.0738 -0.65271,0.49461 -0.0176,0.012 -0.0641,0 -0.0785,-0.01 -0.0206,-0.01 -0.0696,-0.0449 -0.0845,-0.0548 -0.23216,-0.16823 -0.47565,-0.31382 -0.71118,-0.47537 -0.60193,-0.40406 -1.21858,-0.77662 -1.84305,-1.13052 -0.51665,-0.2886 -1.02977,-0.58536 -1.55194,-0.86019 -0.40359,-0.21241 -0.81253,-0.41075 -1.21561,-0.62455 -0.16981,-0.0897 -0.33725,-0.18608 -0.50588,-0.27912 -0.38321,-0.22128 -0.764,-0.44854 -1.1492,-0.66513 -0.64338,-0.36179 -1.30729,-0.67521 -1.92553,-1.09613 -0.77409,-0.48194 -1.5371,-0.98773 -2.30417,-1.48473 -0.58705,-0.38253 -1.1691,-0.77563 -1.7454,-1.17999 -0.41471,-0.29797 -0.10231,-0.0778 -0.47781,-0.33217 -0.28625,-0.19376 -0.56816,-0.39808 -0.87102,-0.55544 -0.0698,-0.0389 -0.13984,-0.0778 -0.20943,-0.11807 -0.054,-0.0309 -0.10652,-0.0648 -0.16124,-0.0947 -0.21114,-0.11188 -0.43122,-0.20063 -0.64182,-0.31421 -0.0922,-0.0568 -0.22933,-0.11129 -0.2724,-0.23524 -0.008,-0.0239 -0.007,-0.0499 -0.0108,-0.0748 0.003,-0.0299 0.003,-0.0608 0.01,-0.0897 0.0179,-0.0788 0.0529,-0.1417 0.0822,-0.2153 0.0577,-0.14489 0.0994,-0.29716 0.1601,-0.44036 0.16543,-0.40906 0.34267,-0.81113 0.51556,-1.21589 0.11308,-0.26546 0.22762,-0.53121 0.35047,-0.79078 0.0427,-0.0908 0.0895,-0.17791 0.13289,-0.26775 0.26683,-0.55255 -0.0139,0.01 0.23619,-0.48654 0.12719,-0.25409 0.25888,-0.50508 0.38554,-0.75957 0.164,-0.32957 0.31989,-0.66463 0.48861,-0.99092 0.40225,-0.81731 0.8199,-1.62414 1.2233,-2.44065 0.34602,-0.66912 0.6677,-1.3549 1.01843,-2.02073 0.0614,-0.1097 0.12124,-0.22068 0.1842,-0.32918 0.27783,-0.47886 0.57759,-0.94016 0.87643,-1.40107 0.25342,-0.37425 0.49453,-0.75937 0.71336,-1.16274 0.089,-0.17311 0.18456,-0.34144 0.27545,-0.51316 0.38807,-0.27812 0.48926,-0.62814 0.7568,-0.36996 0.0774,0.0688 0.15451,0.13881 0.21912,0.22507 0.1397,0.15018 0.27901,0.30065 0.41958,0.44974 0.0132,0.0159 0.12728,0.14988 0.13939,0.16314 0.11624,0.12814 0.24343,0.24242 0.36549,0.36258 0.21432,0.19825 0.42934,0.39539 0.65289,0.57938 0.31282,0.27652 0.62888,0.54746 0.95257,0.80633 0.37621,0.3211 0.74423,0.65507 1.10426,1.0006 0.27085,0.27343 0.53318,0.55913 0.77581,0.86717 0.21424,0.27064 0.41894,0.55245 0.57162,0.87763 0.0234,0.0499 0.0499,0.0977 0.0703,0.14978 0.0153,0.0389 0.0236,0.0808 0.0363,0.12037 0.0416,0.13003 0.098,0.25528 0.1213,0.39229 0,0 -0.62424,0.39091 -0.62424,0.39091 z"
           id="path5248"
           style="fill:#000000;fill-opacity:1;fill-rule:nonzero;stroke:#000000;stroke-width:0.04336974;stroke-linejoin:round;stroke-miterlimit:4;stroke-opacity:1;stroke-dasharray:none" />
        <path
           style="fill:#000000;fill-opacity:1;fill-rule:nonzero;stroke:none"
           id="path5302"
           d="m 174.63455,951.84398 c -0.0734,0.41784 -0.0777,0.84395 -0.12628,1.26421 -0.0217,0.18768 -0.0775,0.46442 -0.11293,0.65134 -0.0734,0.48232 -0.28395,0.92455 -0.46747,1.37156 -0.41026,0.9993 0.11515,-0.26284 -0.28843,0.70348 -0.25353,0.53377 -0.50542,1.07006 -0.73067,1.61638 -0.16383,0.45358 -0.32476,0.90783 -0.46557,1.36916 -0.096,0.22206 -0.14192,0.46373 -0.23397,0.68693 -0.026,0.0631 -0.10205,0.2034 -0.13487,0.26541 -0.0403,0.071 -0.0848,0.13741 -0.10793,0.21649 -0.006,0.0215 -0.0195,0.0471 -0.009,0.0668 0.007,0.0118 0.0249,-0.0103 0.0376,-0.0146 0.0271,-0.009 0.1103,-0.0249 0.0817,-0.026 -0.3724,-0.0144 -0.7453,-0.009 -1.11795,-0.0142 0.0748,-0.02 0.15125,-0.0349 0.22449,-0.0601 0.32341,-0.11138 0.63472,-0.26499 0.94629,-0.40459 0.42551,-0.18551 0.21999,-0.0944 0.61674,-0.27284 0.40674,-0.15067 0.78671,-0.36282 1.20252,-0.48857 0.11166,-0.0354 0.23543,-0.0374 0.34131,-0.0917 0.0767,-0.0393 0.1414,-0.11307 0.20774,-0.16693 0.5592,-0.32045 1.25007,-0.17889 1.8552,-0.17095 0.25703,0.32903 0.28016,0.79044 0.33701,1.18815 0.0715,0.68437 0.17884,1.36414 0.2577,2.04759 0.0472,0.62894 0.20626,1.23888 0.35273,1.84965 0.17339,0.75045 0.38474,1.49199 0.55929,2.24238 0.18052,0.61316 0.29848,1.24247 0.41009,1.87115 0.0645,0.38855 0.094,0.78105 0.10873,1.17421 0,0 -1.22596,0.004 -1.22596,0.004 l 0,0 c -0.009,-0.38723 -0.0319,-0.77447 -0.093,-1.15742 -0.10254,-0.62673 -0.21183,-1.25309 -0.38679,-1.86454 -0.17382,-0.75118 -0.39649,-1.48923 -0.56573,-2.24112 -0.15,-0.61533 -0.32711,-1.22814 -0.35909,-1.86462 -0.0737,-0.68241 -0.17857,-1.36081 -0.25693,-2.04261 -0.037,-0.22368 -0.10688,-0.83656 -0.2931,-1.00581 -0.0186,-0.0169 -0.0461,-0.0196 -0.0692,-0.0294 0.37878,-0.005 0.75757,-0.01 1.13635,-0.0147 -0.0321,0.003 -0.0646,0.002 -0.0962,0.008 -0.14892,0.0275 -0.2926,0.0892 -0.44043,0.12134 -0.0951,0.064 -0.13043,0.11797 -0.21171,0.18649 -0.10142,0.0855 -0.2265,0.0972 -0.35267,0.11691 -0.42912,0.10203 -0.81123,0.32017 -1.22527,0.46668 -0.58674,0.25989 -1.17304,0.51975 -1.75959,0.7801 -0.44207,0.002 -0.88438,0.0221 -1.32621,0.007 -0.0369,-10e-4 -0.0716,-0.0274 -0.096,-0.055 -0.10907,-0.12318 0.0315,-0.3165 0.0908,-0.42134 0.0446,-0.083 0.0968,-0.16207 0.1364,-0.24759 0.10086,-0.21802 0.14004,-0.46226 0.23932,-0.68134 0.14619,-0.46393 0.32237,-0.91718 0.47563,-1.37869 0.21638,-0.55255 0.49818,-1.08017 0.74882,-1.6178 0.20449,-0.47848 0.41008,-0.95658 0.58264,-1.44756 0.0329,-0.0936 0.0711,-0.18554 0.0972,-0.28123 0.0288,-0.10566 0.0448,-0.21441 0.0673,-0.32161 0.0335,-0.16881 0.096,-0.46791 0.11689,-0.63755 0.0512,-0.41578 0.0567,-0.83763 0.0889,-1.255 0,0 1.23338,0 1.23338,0 z"
           inkscape:connector-curvature="0" />
        <path
           style="fill:#4d4d4d;fill-opacity:1;fill-rule:nonzero;stroke:none"
           d="m 178.37517,968.12296 c -0.01,-0.47279 -0.21293,-1.44592 -0.76325,-3.66072 -0.35222,-1.41753 -0.56692,-2.53461 -0.72933,-3.79464 -0.12659,-0.98214 -0.28394,-1.9163 -0.34968,-2.07589 l -0.11952,-0.29018 -0.7858,5.3e-4 c -0.51346,3.6e-4 -0.87222,0.0456 -1.03512,0.1306 -0.13713,0.0715 -0.65945,0.29599 -1.16072,0.49881 -0.50127,0.20282 -0.96135,0.38932 -1.0224,0.41444 -0.15477,0.0637 0.54183,-1.87454 1.27229,-3.54001 0.39086,-0.89116 0.65589,-1.64066 0.74867,-2.11716 0.11484,-0.58984 0.18387,-0.75921 0.34451,-0.84537 0.27087,-0.14528 0.25421,-0.30727 -0.10496,-1.02091 l -0.30585,-0.6077 0.17281,-0.33873 c 0.43469,-0.85205 1.50083,-4.01632 1.64207,-4.87361 0.0344,-0.20871 0.0834,-0.37946 0.10894,-0.37946 0.0255,0 0.55391,0.2712 1.17417,0.60267 2.1031,1.12393 5.87793,3.76579 7.11237,4.97768 0.8562,0.84056 1.52581,1.76959 1.6139,2.23915 0.0744,0.39653 -0.15527,0.69205 -1.8111,2.33046 -1.54113,1.52492 -1.91002,2.01793 -2.66031,3.55539 -0.74486,1.52635 -1.0772,2.42246 -1.7407,4.69359 -0.64128,2.19506 -0.87245,2.86439 -1.32392,3.8332 -0.26131,0.56077 -0.27066,0.56981 -0.27707,0.26786 z"
           id="path5306"
           inkscape:connector-curvature="0" />
        <path
           style="fill:#ff0000;fill-opacity:1;fill-rule:nonzero;stroke:none"
           d="m 176.38694,968.03879 c -0.32874,-0.19187 -1.33321,-0.73947 -2.23215,-1.21689 -3.21801,-1.70904 -4.77035,-2.65012 -8.01836,-4.86104 -1.20313,-0.81897 -2.44055,-1.62578 -2.74983,-1.79293 -0.52298,-0.28264 -0.55892,-0.32176 -0.51367,-0.55921 0.1743,-0.91463 3.98857,-8.66357 5.2919,-10.75085 0.4682,-0.74981 0.88384,-1.38343 0.92365,-1.40803 0.0398,-0.0246 0.2055,0.12137 0.3682,0.32439 0.1627,0.20303 0.88078,0.86255 1.59573,1.46561 1.21924,1.02843 2.49473,2.28893 2.49473,2.46541 0,0.0431 -0.0402,0.0784 -0.0893,0.0784 -0.0491,0 -0.0893,0.0812 -0.0893,0.18055 0,0.18458 -0.42117,1.05314 -1.07058,2.20784 -0.20023,0.35603 -0.32387,0.64732 -0.27477,0.64732 0.26026,0 0.71324,-0.32231 0.84691,-0.6026 0.0819,-0.1718 0.16899,-0.29232 0.19349,-0.26782 0.0536,0.0536 -0.5218,1.50461 -1.0281,2.59274 -0.20085,0.43165 -0.5209,1.23522 -0.71122,1.78572 -0.19032,0.55049 -0.4166,1.14791 -0.50284,1.3276 -0.24942,0.5197 -0.15667,0.61079 0.62197,0.61079 0.61901,0 0.75509,-0.0378 1.79644,-0.49861 0.61969,-0.27423 1.34159,-0.57254 1.60423,-0.6629 l 0.47753,-0.16429 0.0499,0.23879 c 0.0274,0.13134 0.14724,0.96201 0.26622,1.84594 0.13163,0.97789 0.39161,2.30632 0.66399,3.39286 0.59144,2.35933 0.89693,3.97502 0.75093,3.97163 -0.0374,-8.9e-4 -0.33699,-0.15856 -0.66572,-0.35044 z"
           id="path5310"
           inkscape:connector-curvature="0" />
      </g>
    </g>
    <g
       id="g5342"
       transform="matrix(2.0000156,0,0,1.9870697,-161.83736,-1008.6858)"
       inkscape:export-filename="C:\Users\Immac\Documents\GitHub\Semana5\noHealth.png"
       inkscape:export-xdpi="90.105324"
       inkscape:export-ydpi="90.105324">
      <path
         style="fill:#333333;fill-opacity:1;fill-rule:nonzero;stroke:none"
         d="m 113.15412,967.70734 c -0.63265,-0.3637 -1.87781,-1.04764 -2.76702,-1.51986 -3.19841,-1.69857 -4.75759,-2.64406 -8.00067,-4.85162 -1.20313,-0.81896 -2.440553,-1.62578 -2.749833,-1.79293 -0.52298,-0.28264 -0.55892,-0.32176 -0.51367,-0.55921 0.1743,-0.91462 3.988573,-8.66356 5.291903,-10.75085 0.4682,-0.74981 0.88384,-1.38343 0.92365,-1.40803 0.0398,-0.0246 0.2055,0.12137 0.3682,0.3244 0.1627,0.20302 0.88078,0.86254 1.59573,1.4656 1.22394,1.0324 2.49473,2.28908 2.49473,2.46704 0,0.0977 -0.75069,1.57925 -1.24906,2.46518 -0.20028,0.35603 -0.32396,0.64733 -0.27485,0.64733 0.0491,0 0.22654,-0.0655 0.3943,-0.14546 0.25595,-0.12205 0.40277,-0.33355 0.91258,-1.31459 l 0.60755,-1.16913 0.11321,0.26548 c 0.0623,0.14602 0.11503,0.3291 0.11725,0.40685 0.002,0.0778 0.03,0.16739 0.0618,0.1992 0.0978,0.0978 0.74574,-0.31934 0.74574,-0.48019 0,-0.0833 -0.13763,-0.42484 -0.30585,-0.75908 l -0.30585,-0.60769 0.17281,-0.33874 c 0.43469,-0.85206 1.50083,-4.01633 1.64207,-4.87362 0.0344,-0.2087 0.0834,-0.37946 0.10895,-0.37946 0.0255,0 0.5539,0.2712 1.17416,0.60268 2.1031,1.12392 5.87793,3.76578 7.11237,4.97767 0.8562,0.84057 1.52582,1.76959 1.61391,2.23915 0.0744,0.39653 -0.15528,0.69205 -1.8111,2.33046 -1.54113,1.52492 -1.91002,2.01793 -2.66032,3.55539 -0.72205,1.47961 -1.07655,2.41903 -1.61726,4.28572 -0.81856,2.82594 -1.23877,3.97425 -1.83383,5.01122 l -0.21138,0.36837 -1.15027,-0.66128 0,0 z"
         id="path5294"
         inkscape:connector-curvature="0" />
      <path
         style="fill:#000000;fill-opacity:1;fill-rule:nonzero;stroke:#000000;stroke-width:0.04336974;stroke-linejoin:round;stroke-miterlimit:4;stroke-opacity:1;stroke-dasharray:none"
         id="path3015"
         d="m 110.55308,952.42255 c -0.0116,-0.13662 -0.0602,-0.26206 -0.10058,-0.38921 -0.0608,-0.19156 -0.0118,-0.0598 -0.0973,-0.26665 -0.14488,-0.3219 -0.35134,-0.59413 -0.55717,-0.86338 -0.23674,-0.31033 -0.50661,-0.58167 -0.76627,-0.86457 -0.34881,-0.3565 -0.72072,-0.68159 -1.09806,-0.99531 -0.32575,-0.25848 -0.64155,-0.5332 -0.96252,-0.79956 -0.22731,-0.18109 -0.44596,-0.37654 -0.66045,-0.57778 -0.11903,-0.12714 -0.25447,-0.23294 -0.37226,-0.36168 -0.0491,-0.0539 -0.0946,-0.11189 -0.1429,-0.16663 -0.13933,-0.14889 -0.27735,-0.30016 -0.42114,-0.44336 -0.0624,-0.0897 -0.15113,-0.1433 -0.22514,-0.21629 -0.0167,-0.014 -0.041,-0.0439 -0.0651,-0.0399 -0.0123,0 -0.0328,0.0419 -0.0219,0.0349 0.19631,-0.12395 0.38768,-0.25838 0.58152,-0.38761 -0.10972,0.16025 -0.20327,0.33585 -0.29711,0.50927 -0.23024,0.40845 -0.47753,0.80205 -0.7374,1.18517 -0.38124,0.55924 -0.73759,1.141 -1.08017,1.73324 -0.35442,0.66095 -0.67387,1.34633 -1.01619,2.01575 -0.42284,0.80813 -0.83588,1.62314 -1.23717,2.44624 -0.27704,0.58067 -0.55799,1.15855 -0.8423,1.73443 -0.2566,0.50309 -0.502893,1.01236 -0.721093,1.53988 -0.16912,0.40108 -0.34176,0.80006 -0.5014,1.20652 -0.0566,0.1425 -0.10263,0.29028 -0.15535,0.43468 -0.0384,0.1053 -0.0685,0.16902 -0.0878,0.28121 0.001,0.0169 -8.5e-4,0.0349 0.004,0.0518 0.0134,0.0409 0.0765,0.0708 0.1052,0.0888 0.0214,0.013 0.0421,0.0279 0.0632,0.0429 0.0221,0.013 0.0441,0.0269 0.0662,0.0399 0.19624,0.13163 0.41192,0.2156 0.61679,0.32529 0.0894,0.0479 0.287713,0.17351 0.366623,0.22257 0.30077,0.16394 0.58349,0.36757 0.87009,0.56203 0.0722,0.0489 0.14641,0.0937 0.21713,0.14539 0.0856,0.0628 0.1677,0.13153 0.25155,0.19725 0.57008,0.41104 1.15157,0.80025 1.73681,1.18088 0.11369,0.0798 0.22655,0.16205 0.34106,0.24063 0.21358,0.14659 0.5497,0.36557 0.76465,0.50588 0.39091,0.25518 0.78193,0.50827 1.17817,0.75189 0.42924,0.26336 0.85664,0.53191 1.28979,0.7865 0.19669,0.11557 0.396,0.22486 0.59341,0.33884 0.97739,0.56392 0.21803,0.13832 1.1583,0.65846 0.17176,0.0897 0.34351,0.18019 0.51526,0.27034 0.19863,0.10999 0.39584,0.22357 0.59588,0.32997 0.1992,0.10601 0.40156,0.20353 0.60171,0.30704 0.52814,0.27304 1.05121,0.55804 1.5736,0.84573 0.6404,0.35062 1.27826,0.70762 1.90689,1.08635 0.24055,0.16434 0.49353,0.30096 0.73701,0.45862 0.0369,0.0189 0.0734,0.0558 0.11145,0.0219 0.008,-0.01 0.031,-0.0319 0.0219,-0.0259 -0.57541,0.37225 -0.73548,0.58187 -0.55007,0.34842 0.0997,-0.17152 0.18673,-0.35281 0.27854,-0.53021 0.16428,-0.28839 0.31501,-0.58696 0.46383,-0.88652 0.21332,-0.42251 0.40311,-0.85978 0.58685,-1.30065 0.22563,-0.59363 0.40861,-1.20701 0.57897,-1.82488 0.1909,-0.65057 0.36375,-1.30803 0.55113,-1.9599 0.17257,-0.61687 0.38405,-1.21858 0.61075,-1.81062 0.0591,-0.1431 0.11668,-0.287 0.17723,-0.4292 0.0619,-0.14539 0.30571,-0.69475 0.37324,-0.84662 0.0564,-0.12695 0.26262,-0.59095 0.32674,-0.72666 0.0489,-0.10331 0.10102,-0.20453 0.15153,-0.30684 0.19218,-0.36299 0.39665,-0.72008 0.62142,-1.05684 0.0704,-0.1054 0.21367,-0.30086 0.29056,-0.40676 0.26744,-0.36846 0.57184,-0.69704 0.87629,-1.02263 0.0472,-0.0499 0.0934,-0.10082 0.14169,-0.14918 0.12411,-0.12435 0.20479,-0.19326 0.33128,-0.31272 0.13334,-0.12595 0.26422,-0.25489 0.39918,-0.37854 0.21462,-0.19156 0.41889,-0.39799 0.62543,-0.60112 0.14091,-0.13382 0.27711,-0.27403 0.4205,-0.40436 0.0708,-0.0738 0.14232,-0.14689 0.21023,-0.22397 0.0491,-0.0818 0.0947,-0.16723 0.14529,-0.24841 0.0412,-0.0698 0.10326,-0.11637 0.15394,-0.1758 0.007,-0.01 0.0587,-0.0748 0.0656,-0.0848 0.063,-0.0718 0.0962,-0.11707 0.0921,-0.22297 -0.005,-0.0249 -0.0101,-0.0499 -0.0162,-0.0748 -0.0166,-0.0678 -0.0359,-0.13373 -0.0531,-0.20094 -0.0204,-0.0798 -0.0293,-0.12834 -0.0601,-0.20442 -0.0221,-0.0548 -0.048,-0.1068 -0.072,-0.16015 -0.24704,-0.47647 -0.56221,-0.90148 -0.9013,-1.29108 -0.0854,-0.0977 -0.17543,-0.19087 -0.26314,-0.2863 -0.41102,-0.43807 -0.85075,-0.83645 -1.31324,-1.19714 -0.23425,-0.18259 -0.4746,-0.35421 -0.71152,-0.53211 -0.55299,-0.42351 -1.12668,-0.80703 -1.69619,-1.19854 -0.40263,-0.27682 -0.44397,-0.30913 -0.83758,-0.59074 -0.70707,-0.50468 -1.43671,-0.96689 -2.18211,-1.389 -0.50805,-0.28092 -1.02331,-0.54338 -1.53637,-0.81133 -0.17803,-0.0828 -0.34902,-0.18458 -0.52518,-0.27253 -0.0689,-0.0339 -0.18323,-0.0907 -0.26099,-0.1093 -0.0282,-0.01 -0.0574,0 -0.0861,-0.01 -0.0199,0 -0.0413,0 -0.0598,0.014 -0.0144,0.01 -0.0501,0.0449 -0.0362,0.0359 0.19219,-0.12196 0.37509,-0.26446 0.57189,-0.37594 0.0185,-0.01 -0.0188,0.0429 -0.0246,0.0658 -0.0133,0.0519 -0.0207,0.14071 -0.0264,0.19326 -0.0369,0.38293 -0.12218,0.75558 -0.21327,1.12484 -0.0206,0.0818 -0.0399,0.16484 -0.0619,0.24651 -0.0495,0.18339 -0.14066,0.48285 -0.19231,0.65407 -0.12073,0.40018 -0.24617,0.79786 -0.37508,1.19455 -0.20329,0.59662 -0.4118,1.19205 -0.65713,1.76704 -0.0126,0.0299 -0.44258,0.98254 -0.45911,1.01914 -0.074,0.15816 -0.1485,0.31602 -0.22194,0.47457 -0.0669,0.1443 -0.13046,0.29069 -0.19894,0.43388 -0.23478,0.49123 -0.48773,0.97118 -0.74468,1.44665 -0.14147,0.2845 -0.32118,0.54048 -0.46081,0.82598 0,0 -0.6379,0.33316 -0.6379,0.33316 l 0,0 c 0.14505,-0.30015 0.34555,-0.55813 0.50004,-0.85151 0.19255,-0.33466 0.38114,-0.67072 0.5579,-1.01724 0.21437,-0.42032 0.22304,-0.45194 0.42512,-0.87784 0.0754,-0.15886 0.15134,-0.31721 0.22701,-0.47577 0.1165,-0.25678 0.34254,-0.74989 0.45157,-1.01116 0.0644,-0.15437 0.12342,-0.31173 0.18405,-0.46819 0.16396,-0.42301 0.31834,-0.85071 0.4587,-1.28549 0.22416,-0.68059 0.43397,-1.36816 0.59984,-2.07169 0.0887,-0.35959 0.1687,-0.72517 0.19538,-1.09922 0.0117,-0.15456 0.003,-0.0529 0.0183,-0.20133 0.003,-0.0309 -0.0119,-0.0738 0.009,-0.0917 0.19823,-0.17382 0.41501,-0.31672 0.62725,-0.4661 0.0142,-0.01 0.0324,-0.01 0.0489,-0.01 0.0215,-0.001 0.043,0 0.0644,0 0.0289,0.01 0.0585,0.014 0.0868,0.0239 0.0757,0.0289 0.1842,0.0878 0.25337,0.12435 0.17265,0.0917 0.34382,0.18668 0.51588,0.27962 0.50717,0.27184 1.01295,0.54746 1.51573,0.83017 0.1044,0.0608 0.21003,0.11867 0.31319,0.18229 0.10621,0.0658 0.20955,0.13712 0.31476,0.20473 0.12021,0.0768 0.24137,0.15257 0.36149,0.23005 0.12731,0.0818 0.66773,0.43608 0.7865,0.51825 0.12996,0.0897 0.25712,0.18518 0.38568,0.27782 0.4099,0.29846 0.40935,0.30265 0.83258,0.59204 0.14395,0.0987 0.28983,0.19296 0.43362,0.29168 0.38424,0.26386 0.46041,0.32628 0.84412,0.59932 0.1427,0.10161 0.28613,0.20173 0.4292,0.30255 0.28411,0.20353 0.44818,0.31541 0.71944,0.53061 0.15596,0.12375 0.53481,0.44156 0.68173,0.57539 0.11062,0.10071 0.21689,0.20781 0.32509,0.31212 0.10726,0.10331 0.21419,0.20722 0.32128,0.31083 0.43958,0.48255 0.87822,0.97865 1.21265,1.5699 0.0295,0.0538 0.0619,0.1059 0.0884,0.16204 0.0393,0.0838 0.0414,0.12236 0.0639,0.20991 0.0262,0.10212 0.0278,0.10022 0.0579,0.19845 0.008,0.0269 0.0164,0.0548 0.0246,0.0818 0.005,0.0229 0.012,0.0449 0.0142,0.0678 0.002,0.0149 -0.002,0.0309 -0.003,0.0469 -0.007,0.0718 -0.0306,0.12805 -0.074,0.1798 -0.0423,0.0439 -0.0644,0.0868 -0.10269,0.13113 -0.031,0.0359 -0.0517,0.0479 -0.0854,0.0808 -0.0125,0.012 -0.0241,0.0249 -0.0361,0.0379 -0.0274,0.0419 -0.0568,0.0838 -0.0813,0.12844 -0.008,0.014 -0.0134,0.0299 -0.0215,0.0439 -0.007,0.012 -0.0173,0.0219 -0.0235,0.0339 -0.007,0.014 -0.01,0.0289 -0.0145,0.0439 -0.0176,0.0299 -0.0261,0.0479 -0.0503,0.0728 -0.0719,0.0718 4e-5,-0.018 -0.0739,0.0678 -0.0138,0.016 -0.0252,0.0349 -0.0389,0.0509 -0.0155,0.018 -0.0323,0.0349 -0.0485,0.0519 -0.04,0.0369 -0.0817,0.0708 -0.12163,0.107 -0.10472,0.0957 -0.20177,0.20283 -0.30668,0.29846 -0.2124,0.20173 -0.41841,0.41254 -0.63475,0.60859 -0.14024,0.12345 -0.27394,0.25439 -0.41072,0.38283 -0.15954,0.14988 -0.32581,0.29058 -0.47385,0.45662 -0.30745,0.3212 -0.60813,0.65296 -0.88133,1.01455 -0.0636,0.0848 -0.24529,0.32539 -0.30171,0.40686 -0.23109,0.33356 -0.43202,0.69525 -0.63339,1.05354 -0.053,0.10252 -0.10787,0.20373 -0.15897,0.30754 -0.0811,0.16484 -0.26627,0.5717 -0.33921,0.73215 -0.0942,0.20712 -0.28905,0.63591 -0.37513,0.84413 -0.0572,0.13831 -0.10879,0.27961 -0.16319,0.41942 -0.21479,0.59274 -0.42646,1.18817 -0.60174,1.79886 -0.19201,0.64938 -0.3722,1.30314 -0.54979,1.9581 -0.1762,0.61767 -0.35548,1.23444 -0.57495,1.83346 -0.17402,0.44146 -0.35686,0.87734 -0.56688,1.29716 -0.14656,0.29667 -0.28689,0.59842 -0.45198,0.88173 -0.0895,0.17501 -0.17436,0.35291 -0.26257,0.52872 -0.13902,0.30185 -0.0244,0.0738 -0.65271,0.49461 -0.0176,0.012 -0.0641,0 -0.0785,-0.01 -0.0206,-0.01 -0.0696,-0.0449 -0.0845,-0.0548 -0.23216,-0.16823 -0.47565,-0.31382 -0.71118,-0.47537 -0.60193,-0.40406 -1.21858,-0.77662 -1.84305,-1.13052 -0.51665,-0.2886 -1.02977,-0.58536 -1.55194,-0.86019 -0.40359,-0.21241 -0.81253,-0.41075 -1.21561,-0.62455 -0.16981,-0.0897 -0.33725,-0.18608 -0.50588,-0.27912 -0.38321,-0.22128 -0.764,-0.44854 -1.1492,-0.66513 -0.64338,-0.36179 -1.30729,-0.67521 -1.92553,-1.09613 -0.77409,-0.48194 -1.5371,-0.98773 -2.30417,-1.48473 -0.58705,-0.38253 -1.1691,-0.77563 -1.7454,-1.17999 -0.41471,-0.29797 -0.10231,-0.0778 -0.47781,-0.33217 -0.28625,-0.19376 -0.568163,-0.39808 -0.871023,-0.55544 -0.0698,-0.0389 -0.13984,-0.0778 -0.20943,-0.11807 -0.054,-0.0309 -0.10652,-0.0648 -0.16124,-0.0947 -0.21114,-0.11188 -0.43122,-0.20063 -0.64182,-0.31421 -0.0922,-0.0568 -0.22933,-0.11129 -0.2724,-0.23524 -0.008,-0.0239 -0.007,-0.0499 -0.0108,-0.0748 0.003,-0.0299 0.003,-0.0608 0.01,-0.0897 0.0179,-0.0788 0.0529,-0.1417 0.0822,-0.2153 0.0577,-0.14489 0.0994,-0.29716 0.1601,-0.44036 0.16543,-0.40906 0.34267,-0.81113 0.51556,-1.21589 0.11308,-0.26546 0.22762,-0.53121 0.35047,-0.79078 0.0427,-0.0908 0.0895,-0.17791 0.13289,-0.26775 0.26683,-0.55255 -0.0139,0.01 0.23619,-0.48654 0.12719,-0.25409 0.258883,-0.50508 0.385543,-0.75957 0.164,-0.32957 0.31989,-0.66463 0.48861,-0.99092 0.40225,-0.81731 0.8199,-1.62414 1.2233,-2.44065 0.34602,-0.66912 0.6677,-1.3549 1.01843,-2.02073 0.0614,-0.1097 0.12124,-0.22068 0.1842,-0.32918 0.27783,-0.47886 0.57759,-0.94016 0.87643,-1.40107 0.25342,-0.37425 0.49453,-0.75937 0.71336,-1.16274 0.089,-0.17311 0.18456,-0.34144 0.27545,-0.51316 0.38807,-0.27812 0.48926,-0.62814 0.7568,-0.36996 0.0774,0.0688 0.15451,0.13881 0.21912,0.22507 0.1397,0.15018 0.27901,0.30065 0.41958,0.44974 0.0132,0.0159 0.12728,0.14988 0.13939,0.16314 0.11624,0.12814 0.24343,0.24242 0.36549,0.36258 0.21432,0.19825 0.42934,0.39539 0.65289,0.57938 0.31282,0.27652 0.62888,0.54746 0.95257,0.80633 0.37621,0.3211 0.74423,0.65507 1.10426,1.0006 0.27085,0.27343 0.53318,0.55913 0.77581,0.86717 0.21424,0.27064 0.41894,0.55245 0.57162,0.87763 0.0234,0.0499 0.0499,0.0977 0.0703,0.14978 0.0153,0.0389 0.0236,0.0808 0.0363,0.12037 0.0416,0.13003 0.098,0.25528 0.1213,0.39229 0,0 -0.62424,0.39091 -0.62424,0.39091 z"
         inkscape:connector-curvature="0" />
      <path
         inkscape:connector-curvature="0"
         d="m 110.7936,951.41892 c 0.0142,0.64654 -0.17391,1.26556 -0.3623,1.87643 -0.17702,0.57533 -0.44808,1.11329 -0.68623,1.66396 -0.24896,0.59723 -0.12443,0.3067 -0.37281,0.87192 -0.28845,0.64957 -0.51047,1.32706 -0.70617,2.00966 -0.12479,0.45297 -0.2323,0.91344 -0.38665,1.35759 -0.0745,0.26528 -0.22399,0.54142 -0.24986,0.81728 0.006,0.0175 0.004,0.0401 0.0177,0.0524 0.0546,0.0486 0.5807,0.055 0.65922,0.0576 0.0747,10e-4 0.14932,0.003 0.22399,0.003 0.0824,8e-4 0.16482,10e-4 0.24724,10e-4 0.78596,0.002 -0.56999,-0.008 -0.71652,-0.0167 -0.0776,-0.005 0.15445,-0.0183 0.2316,-0.0281 0.0777,-0.01 0.15522,-0.0205 0.23283,-0.0308 0.46059,-0.0538 0.91952,-0.11934 1.38128,-0.16273 0.27865,0.005 0.53988,-0.0587 0.80562,-0.13037 0.67892,-0.21451 1.13848,-0.13409 1.94285,-0.12998 0.27524,0.10971 0.28702,0.43766 0.31334,0.69376 0.0358,0.45155 0.0572,0.90336 0.07,1.35612 -0.0297,0.8971 0.0638,1.78764 0.16348,2.67726 0.0754,0.71808 0.20572,1.42838 0.26628,2.14813 -0.002,0.42638 0.0917,0.84 0.15533,1.25877 0.0616,0.26355 0.11346,0.52881 0.17043,0.79328 0.0596,0.25572 0.15601,0.49867 0.20577,0.75781 0,0 -1.22868,0.0241 -1.22868,0.0241 l 0,0 c -0.0531,-0.25735 -0.15225,-0.49936 -0.20755,-0.75549 -0.0588,-0.26611 -0.10653,-0.53432 -0.16119,-0.80134 -0.0638,-0.42122 -0.14638,-0.83877 -0.14029,-1.26732 -0.0567,-0.71716 -0.15942,-1.42897 -0.23283,-2.14447 -0.10618,-0.89272 -0.19176,-1.78657 -0.19459,-2.68664 -0.0181,-0.45005 -0.0522,-0.89853 -0.0923,-1.34704 -0.026,-0.22894 -0.0267,-0.48981 -0.30532,-0.52426 2.11083,-0.0239 0.98773,-0.0698 0.49698,0.10982 -0.27361,0.065 -0.53294,0.16975 -0.82093,0.14822 -0.46414,0.0371 -0.92469,0.10111 -1.38682,0.15631 -0.15544,0.0208 -0.30941,0.0581 -0.46614,0.0637 -0.71918,0.0258 -1.44008,0.0367 -2.15975,0.0189 -0.25369,-0.014 -0.6665,0.0256 -0.70615,-0.30858 0.0149,-0.12839 0.0594,-0.23172 0.0983,-0.35445 0.0525,-0.16532 0.0988,-0.33254 0.16831,-0.49217 0.16618,-0.43867 0.26661,-0.9007 0.40294,-1.34905 0.20138,-0.6893 0.43384,-1.37049 0.72956,-2.02565 0.34747,-0.75431 0.0332,-0.057 0.37831,-0.871 0.23195,-0.54705 0.49573,-1.0813 0.67323,-1.65015 0.18096,-0.59941 0.36696,-1.20699 0.3184,-1.84129 0,0 1.23005,0 1.23005,0 z"
         id="path5326"
         style="fill:#000000;fill-opacity:1;fill-rule:nonzero;stroke:none" />
      <path
         inkscape:connector-curvature="0"
         d="m 107.12779,958.55465 c -0.0687,-0.39608 -0.14134,-0.79183 -0.20315,-1.18907 -0.0753,-0.45758 -0.10211,-0.92105 -0.11647,-1.38396 -0.008,-0.34706 -0.0124,-0.69421 -0.0128,-1.04136 -0.005,-0.26062 0.058,-0.42777 -0.20874,-0.55455 -0.41115,-0.0304 -1.02391,-0.05 0.93547,0.004 0.0428,10e-4 -0.0851,0.01 -0.1276,0.0153 -0.17835,0.0236 -0.13176,0.0175 -0.31487,0.0563 -0.31892,0.0983 -0.64868,0.15936 -0.96641,0.2606 -0.30285,0.0923 -0.5552,0.28489 -0.8213,0.44813 -0.0411,0.0275 -0.0834,0.0533 -0.12324,0.0826 -0.0811,0.0598 -0.15234,0.13255 -0.23506,0.1901 -0.16563,0.11523 -0.35157,0.20761 -0.5281,0.3044 -0.41218,0.23446 -0.83948,0.44504 -1.27658,0.62903 -0.27192,0.11237 -0.13684,0.0587 -0.40515,0.16121 0,0 -1.20791,-0.14777 -1.20791,-0.14777 l 0,0 c 0.27054,-0.0963 0.13454,-0.0443 0.4078,-0.15655 0.43746,-0.17439 0.86494,-0.38043 1.27244,-0.61611 0.16431,-0.0888 0.35919,-0.18564 0.51618,-0.28466 0.1167,-0.0736 0.1281,-0.11068 0.23554,-0.19772 0.0397,-0.0321 0.083,-0.0595 0.12448,-0.0893 0.26881,-0.16608 0.52412,-0.36202 0.82244,-0.47243 0.31012,-0.12976 0.65485,-0.15908 0.97183,-0.2731 0.12259,-0.036 0.30809,-0.0892 0.43738,-0.0921 0.30118,-0.007 1.07871,-0.17621 1.5114,0.0571 0.22459,0.1902 0.21896,0.39853 0.20768,0.67613 -0.001,0.34583 -0.007,0.6917 0.002,1.03749 0.0135,0.45754 0.0354,0.91561 0.11089,1.36792 0.068,0.39276 0.13191,0.78783 0.2295,1.17434 0,0 -1.23742,0.0344 -1.23742,0.0344 z"
         id="path5328"
         style="fill:#000000;fill-opacity:1;fill-rule:nonzero;stroke:none" />
      <path
         inkscape:connector-curvature="0"
         d="m 111.99269,959.94017 c 0.0742,-0.35795 0.15126,-0.71516 0.22696,-1.07304 0.0766,-0.32246 0.0636,-0.65611 0.10003,-0.98282 0.007,-0.0649 0.0905,-0.55536 0.0985,-0.60271 0.0196,-0.10426 0.0355,-0.2093 0.0589,-0.31279 0.0778,-0.34467 0.18663,-0.68198 0.26673,-1.02617 0.0514,-0.22105 0.0952,-0.44382 0.14501,-0.66526 0.0947,-0.52004 0.26606,-1.01986 0.43246,-1.51998 0.10475,-0.30614 0.16075,-0.6272 0.29315,-0.923 0.0383,-0.0668 0.0648,-0.12915 0.12815,-0.17752 0.3825,-0.29182 0.96128,-0.0688 1.44222,-0.0563 0.0451,10e-4 0.0888,0.0196 0.12976,0.0386 0.0474,0.0221 0.0886,0.0557 0.1329,0.0835 0.35421,0.22659 0.68027,0.49141 1.04606,0.69986 0.21756,0.16703 0.47527,0.25951 0.71834,0.37825 0.20475,0.11579 0.10146,0.0625 0.30962,0.16052 0.36229,0.1521 0.73884,0.26196 1.12349,0.34051 0.35888,0.0705 0.72366,0.0954 1.08849,0.10621 0.14232,0.003 0.28469,0.003 0.42704,0.003 0.0448,-2e-5 0.17905,2.2e-4 0.13429,-2.8e-4 -1.13277,-0.0126 -1.46117,0.0707 -0.98952,-0.036 0.17234,-0.0451 0.32037,-0.10874 0.4261,-0.25448 0,0 1.23185,0.0674 1.23185,0.0674 l 0,0 c -0.0989,0.18783 -0.23453,0.28405 -0.43676,0.3483 -0.63701,0.19193 -1.34269,0.0466 -2.00517,0.0588 -0.36288,-0.0172 -0.72509,-0.0515 -1.0807,-0.1291 -0.38818,-0.0901 -0.77195,-0.20083 -1.13473,-0.36846 -0.34541,-0.17427 -0.69977,-0.33267 -1.02203,-0.549 -0.36013,-0.21862 -0.68673,-0.48777 -1.05587,-0.69203 -0.0439,-0.0177 -0.0861,-0.04 -0.13159,-0.0531 -0.0423,-0.0121 -0.17407,-0.02 -0.13012,-0.022 0.36813,-0.0168 0.73686,-0.0157 1.10531,-0.0226 0.0328,-6.1e-4 -0.0667,-0.005 -0.0983,0.004 -0.069,0.0195 -0.0928,0.0735 -0.13159,0.12653 -0.14691,0.28529 -0.19104,0.60894 -0.30378,0.90839 -0.17523,0.49449 -0.34945,0.99041 -0.45252,1.50624 -0.0503,0.22257 -0.0915,0.44716 -0.14362,0.66932 -0.1039,0.44317 -0.25849,0.87498 -0.32391,1.32717 -0.007,0.049 -0.0781,0.52081 -0.0855,0.59116 -0.0348,0.33302 -0.0344,0.67044 -0.0948,1.00098 -0.076,0.35837 -0.15584,0.71516 -0.20901,1.07791 0,0 -1.23592,-0.0303 -1.23592,-0.0303 z"
         id="path5330"
         style="fill:#000000;fill-opacity:1;fill-rule:nonzero;stroke:none" />
    </g>
  </g>
</svg>
